<svg xmlns="http://www.w3.org/2000/svg" width="120" height="120">
    <defs>
        <linearGradient id="a" x1=".5" x2=".5" y2="1" gradientUnits="objectBoundingBox">
            <stop offset="0" stop-color="#6695b7"/>
            <stop offset="1" stop-color="#2d4b60"/>
        </linearGradient>
    </defs>
    <g data-name="default avatar" transform="translate(-886 -236)">
        <circle data-name="Ellipse 2" cx="60" cy="60" r="60" transform="translate(886 236)" style="fill:#7b8afd"/>
        <g data-name="Group 1335">
            <path data-name="Path 798" d="M499.031 1016.97a47.679 47.679 0 0 0-32.053 0v-10.048a65.23 65.23 0 0 1 32.053 0z" transform="translate(464.046 -694.234)" style="fill:#5a95bf"/>
            <path data-name="Path 853" d="M261.8 916.052c-.8 0 .643 10.181 1.384 12.624 1.69 5.57 22.376 10.287 22.529 13.982a3.437 3.437 0 0 1 0 .964h-70l6.518-6.268 4.959-1.286 2.637-1.246a8.1 8.1 0 0 0 1.436-.871l5.42-4.114a8.543 8.543 0 0 0 1.559-5.34c-.142-3.214-.142-8.446-.142-8.446z" transform="translate(696.774 -611.921)" style="fill:url(#a)"/>
            <path data-name="Path 799" d="M261.8 916.052c-.8 0 .643 10.181 1.384 12.624.3 1 1.224 1.978 2.773 3.1 2.958 2.147-5.7 2.444-15.38 2.13-8.42-.272-17.893-1.028-16.165-2.339l2.276-1.728a8.543 8.543 0 0 0 1.559-5.34c-.142-3.214-.142-8.446-.142-8.446z" transform="translate(696.774 -611.92)" style="fill:#e38a6f"/>
            <path data-name="Path 800" d="M400.714 251.588s-3.71-6.913-4.362-7.988.489-4.76 0-5.528-.652-11.977 3.261-15.354a25.89 25.89 0 0 1 6.2-4.3c.969-.836 7.415-3.19 10.125-2.764 8.15 1.283 6.794.862 8.3.768 3.46.558 6.1 1.489 5.693 3.757a3.011 3.011 0 0 1 3.437.082c-.3.641-.341 1.063 0 1.382 0 0 4.239.154 4.239 10.748 0 10.2-.792 13.849-1.956 14.433a20.919 20.919 0 0 0-3.313 2.658s.541-18.467-4.676-18.32-9.041 2.775-21.684 0c-2.778-.607-6.732 16.738-5.264 20.426z" transform="translate(529.695 36.851)" style="fill:#873f38"/>
            <path data-name="Path 801" d="M399.908 432.83s2.247 11.014 7.895 14.433c8.82 5.339 14.875.811 14.875.811s7.037-6.306 8.19-10.023a53.537 53.537 0 0 0 1.393-5.221 2.151 2.151 0 0 0 1.548-.768c.619-.768.774-5.681 1.238-7.063s.774-3.685-.774-3.532-2.322 2.764-2.322 2.764 1.405-4.644.477-7.408-.322-8.561-4.037-10.864-8.446-1.535-10.725-.768-7.078.307-10.019-.768-6.228 3.812-6.692 6.116a107.939 107.939 0 0 0-1.048 13.692l.155 1.842s-1.084-4.913-2.012-5.221-2.632-.307-2.322 3.378.685.832 2.012 7.677c.775 3.993 2.168.923 2.168.923z" transform="translate(530.074 -137.898)" style="fill:#fcaa9f"/>
            <path data-name="Path 802" d="M438.3 1033.032s-1.35 7.939-2.214 8.163 9.59 5.371 13.434 5.867c0 0 2.309-4 4.9-5.205-.002-.001-15.585-5.288-16.12-8.825z" transform="translate(492.705 -720.27)" style="fill:#6fbce9"/>
            <path data-name="Path 803" d="M702.946 1032.031s1.419 7.924 2.276 8.139-9.426 5.474-13.221 6.011c0 0-2.326-3.972-4.9-5.152-.001-.001 15.355-5.456 15.845-8.998z" transform="translate(260.161 -719.343)" style="fill:#6bbce7"/>
        </g>
    </g>
</svg>
